<svg width="355" height="520" viewBox="0 0 355 520" fill="none" xmlns="http://www.w3.org/2000/svg">
<mask id="mask0_48_12" style="mask-type:alpha" maskUnits="userSpaceOnUse" x="0" y="0" width="355" height="520">
<rect width="355" height="520" fill="black"/>
</mask>
<g mask="url(#mask0_48_12)">
<g opacity="0.25">
<path d="M241.305 10.6288L13.6293 238.289C2.12356 249.794 2.12356 268.447 13.6293 279.953C25.1351 291.458 43.7897 291.458 55.2954 279.953L282.971 52.2923C294.476 40.7872 294.477 22.1339 282.971 10.6289C271.465 -0.876121 252.81 -0.876251 241.305 10.6288Z" fill="white"/>
<path d="M357.38 126.695L129.704 354.357C118.198 365.86 118.198 384.513 129.704 396.02C141.21 407.524 159.865 407.524 171.37 396.02L399.047 168.359C410.551 156.854 410.551 138.201 399.047 126.696C387.54 115.191 368.884 115.191 357.38 126.695Z" fill="white"/>
<path d="M468.987 238.294L241.311 465.956C229.805 477.46 229.805 496.113 241.311 507.616L241.311 507.62C252.817 519.123 271.471 519.123 282.977 507.62L510.653 279.958C522.157 268.453 522.157 249.799 510.653 238.294C499.146 226.79 480.49 226.789 468.987 238.294Z" fill="white"/>
<path d="M437.471 180.5L345.211 272.754C340.281 277.685 340.281 285.679 345.211 290.61C350.14 295.541 358.138 295.541 363.068 290.61L455.328 198.355C460.258 193.425 460.258 185.43 455.328 180.5C450.398 175.569 442.401 175.569 437.471 180.5Z" fill="white"/>
<path d="M163.931 227.878L71.6704 320.134C66.7394 325.064 66.7394 333.058 71.6704 337.988C76.6014 342.921 84.5962 342.921 89.5272 337.988L181.788 245.734C186.719 240.803 186.719 232.809 181.788 227.878C176.857 222.948 168.862 222.948 163.931 227.878Z" fill="white"/>
</g>
</g>
</svg>
