<svg width="420" height="120" viewBox="0 0 420 120" fill="none" xmlns="http://www.w3.org/2000/svg">
<path fill-rule="evenodd" clip-rule="evenodd" d="M36.3153 49.7864C30.2457 55.6855 26.8691 63.1434 25.8445 71.1514C25.4495 78.4286 26.871 81.4024 32.8941 84.214C41.3581 87.4044 51.8009 88.087 60.074 84.7895C70.1235 80.6309 77.7578 71.1705 80.5141 60.7192C78.5272 58.4519 76.4087 56.4217 74.2376 54.9697C71.4016 66.8592 64.2601 77.4005 51.6289 79.591C44.7225 80.6718 36.4176 79.2083 32.7362 75.8159C32.1333 69.7978 34.2344 64.9751 36.9469 60C36.4074 56.956 36.0258 53.7494 36.3153 49.7864Z" fill="white"/>
<path fill-rule="evenodd" clip-rule="evenodd" d="M52.3145 24.4743C44.3978 30.4975 40.029 37.2669 38.6312 47.7015C36.9869 59.976 41.7324 69.9629 48.9129 77.2134C51.9451 76.7081 54.6316 75.9319 57.1711 74.8911C51.3557 70.0159 45.1819 61.7573 45.5102 51.5856C45.8543 40.9248 51.7102 28.6214 59.8949 28.3675C62.4028 28.2897 68.6588 34.5346 71.2374 39.6513C74.0401 40.6801 77.2718 42.4302 80.4693 44.3351C78.1521 36.1049 73.7749 28.9566 67.6267 24.5774C62.152 20.4359 57.7054 20.1289 52.3145 24.4743Z" fill="white"/>
<path fill-rule="evenodd" clip-rule="evenodd" d="M50.2105 41.8956C49.421 44.6428 48.6579 47.4148 48.5131 50.0542C59.5777 44.7443 73.7914 47.7575 81.1095 57.7084C84.8707 62.7987 88.1242 72.187 86.8391 75.5838C83.7709 78.8981 76.9625 79.8921 71.7057 79.9556C69.6793 81.63 66.3518 84.081 63.3912 85.8459C71.2575 87.9171 80.3085 87.0646 87.2513 83.9091C93.5188 80.6541 94.3664 77.3079 93.949 70.9479C92.738 61.977 89.3392 53.9458 81.1224 47.5216C71.456 39.964 60.5399 39.5899 50.2105 41.8956Z" fill="white"/>
<path fill-rule="evenodd" clip-rule="evenodd" d="M59.8552 10C51.3944 10.0105 42.8283 12.1659 34.9992 16.69C11.1168 30.4779 2.90591 61.1238 16.6828 85.0051C30.4727 108.886 61.1185 117.097 85.0008 103.31C108.883 89.522 117.094 58.8756 103.317 34.9944C94.0538 18.9494 77.1717 9.97844 59.8552 10ZM59.8952 17.4002C74.6325 17.3657 88.9619 25.0059 96.8701 38.7128C108.647 59.1139 101.686 85.0899 81.2907 96.8686C60.8821 108.647 34.9074 101.689 23.1307 81.288C11.354 60.8871 18.3148 34.9071 38.7103 23.1287C45.4079 19.2639 52.6975 17.417 59.8952 17.4002Z" fill="white"/>
<path d="M124.477 92.672C123.005 92.672 121.853 92.256 121.021 91.424C120.189 90.592 119.773 89.408 119.773 87.872V29.12C119.773 27.584 120.189 26.4 121.021 25.568C121.853 24.736 123.037 24.32 124.573 24.32H159.037C160.317 24.32 161.277 24.64 161.917 25.28C162.557 25.856 162.877 26.72 162.877 27.872C162.877 29.088 162.557 30.016 161.917 30.656C161.277 31.296 160.317 31.616 159.037 31.616H128.701V54.272H157.117C158.333 54.272 159.261 54.592 159.901 55.232C160.541 55.872 160.861 56.736 160.861 57.824C160.861 59.04 160.541 59.968 159.901 60.608C159.261 61.248 158.333 61.568 157.117 61.568H128.701V87.872C128.701 91.072 127.293 92.672 124.477 92.672ZM175.144 92.672C173.736 92.672 172.648 92.288 171.88 91.52C171.112 90.688 170.728 89.536 170.728 88.064V28.256C170.728 26.72 171.112 25.568 171.88 24.8C172.648 24.032 173.736 23.648 175.144 23.648C176.616 23.648 177.736 24.032 178.504 24.8C179.272 25.568 179.656 26.72 179.656 28.256V88.064C179.656 89.536 179.272 90.688 178.504 91.52C177.8 92.288 176.68 92.672 175.144 92.672ZM214.381 92.864C209.325 92.864 204.973 91.904 201.325 89.984C197.741 88 194.957 85.216 192.973 81.632C190.989 77.984 189.997 73.696 189.997 68.768C189.997 63.904 190.957 59.648 192.877 56C194.861 52.352 197.549 49.504 200.941 47.456C204.397 45.408 208.333 44.384 212.749 44.384C215.885 44.384 218.701 44.928 221.197 46.016C223.757 47.04 225.933 48.544 227.725 50.528C229.517 52.512 230.861 54.944 231.757 57.824C232.717 60.64 233.197 63.84 233.197 67.424C233.197 68.448 232.877 69.248 232.237 69.824C231.661 70.336 230.797 70.592 229.645 70.592H196.813V65.024H227.437L225.805 66.368C225.805 63.04 225.293 60.224 224.269 57.92C223.309 55.552 221.869 53.76 219.949 52.544C218.093 51.328 215.757 50.72 212.941 50.72C209.869 50.72 207.245 51.456 205.069 52.928C202.893 54.336 201.229 56.352 200.077 58.976C198.925 61.536 198.349 64.512 198.349 67.904V68.48C198.349 74.24 199.725 78.592 202.477 81.536C205.229 84.48 209.197 85.952 214.381 85.952C216.429 85.952 218.509 85.696 220.621 85.184C222.797 84.672 224.877 83.744 226.861 82.4C227.821 81.824 228.685 81.568 229.453 81.632C230.285 81.632 230.957 81.888 231.469 82.4C231.981 82.848 232.301 83.424 232.429 84.128C232.557 84.768 232.461 85.472 232.141 86.24C231.821 87.008 231.213 87.68 230.317 88.256C228.205 89.728 225.677 90.88 222.733 91.712C219.853 92.48 217.069 92.864 214.381 92.864ZM242.727 92.576C241.767 92.576 240.935 92.288 240.231 91.712C239.527 91.136 239.143 90.368 239.079 89.408C239.079 88.448 239.495 87.424 240.327 86.336L256.935 65.696V70.016L241.383 50.816C240.487 49.728 240.071 48.704 240.135 47.744C240.199 46.784 240.551 46.016 241.191 45.44C241.895 44.864 242.759 44.576 243.783 44.576C244.871 44.576 245.767 44.768 246.471 45.152C247.239 45.536 247.943 46.144 248.583 46.976L261.831 63.776H258.759L272.007 46.976C272.647 46.144 273.319 45.536 274.023 45.152C274.791 44.768 275.687 44.576 276.711 44.576C277.735 44.576 278.567 44.864 279.207 45.44C279.911 46.016 280.263 46.784 280.263 47.744C280.327 48.704 279.943 49.728 279.111 50.816L263.655 69.824V65.984L280.167 86.336C281.063 87.36 281.479 88.352 281.415 89.312C281.351 90.272 280.967 91.072 280.263 91.712C279.623 92.288 278.791 92.576 277.767 92.576C276.679 92.576 275.751 92.384 274.983 92C274.279 91.616 273.607 91.008 272.967 90.176L258.663 72.224H261.639L247.527 90.176C246.887 90.944 246.183 91.552 245.415 92C244.711 92.384 243.815 92.576 242.727 92.576ZM318.881 92.864C314.401 92.864 310.433 92.288 306.977 91.136C303.585 89.92 300.737 88.16 298.433 85.856C296.129 83.488 294.369 80.576 293.153 77.12C292.001 73.6 291.425 69.536 291.425 64.928V28.16C291.425 26.624 291.809 25.504 292.577 24.8C293.345 24.032 294.433 23.648 295.841 23.648C297.313 23.648 298.433 24.032 299.201 24.8C299.969 25.504 300.353 26.624 300.353 28.16V64.64C300.353 71.488 301.921 76.608 305.057 80C308.193 83.328 312.801 84.992 318.881 84.992C324.961 84.992 329.569 83.328 332.705 80C335.841 76.608 337.409 71.488 337.409 64.64V28.16C337.409 26.624 337.793 25.504 338.561 24.8C339.329 24.032 340.417 23.648 341.825 23.648C343.233 23.648 344.321 24.032 345.089 24.8C345.857 25.504 346.241 26.624 346.241 28.16V64.928C346.241 71.008 345.185 76.128 343.073 80.288C341.025 84.448 337.953 87.584 333.857 89.696C329.825 91.808 324.833 92.864 318.881 92.864ZM363.372 109.952C362.028 109.952 360.972 109.568 360.204 108.8C359.436 108.032 359.052 106.944 359.052 105.536V48.992C359.052 47.52 359.436 46.432 360.204 45.728C360.972 44.96 362.028 44.576 363.372 44.576C364.78 44.576 365.836 44.96 366.54 45.728C367.308 46.432 367.692 47.52 367.692 48.992V57.728L366.636 56C367.66 52.48 369.676 49.664 372.684 47.552C375.692 45.44 379.308 44.384 383.532 44.384C387.692 44.384 391.308 45.376 394.38 47.36C397.452 49.28 399.852 52.064 401.58 55.712C403.308 59.296 404.172 63.584 404.172 68.576C404.172 73.504 403.308 77.824 401.58 81.536C399.916 85.184 397.516 88 394.38 89.984C391.308 91.904 387.692 92.864 383.532 92.864C379.372 92.864 375.788 91.808 372.78 89.696C369.772 87.584 367.756 84.8 366.732 81.344H367.788V105.536C367.788 106.944 367.404 108.032 366.636 108.8C365.868 109.568 364.78 109.952 363.372 109.952ZM381.516 85.952C384.268 85.952 386.668 85.28 388.716 83.936C390.828 82.592 392.46 80.64 393.612 78.08C394.764 75.52 395.34 72.352 395.34 68.576C395.34 62.944 394.092 58.656 391.596 55.712C389.1 52.768 385.74 51.296 381.516 51.296C378.7 51.296 376.236 51.968 374.124 53.312C372.076 54.592 370.476 56.512 369.324 59.072C368.236 61.632 367.692 64.8 367.692 68.576C367.692 74.208 368.94 78.528 371.436 81.536C373.932 84.48 377.292 85.952 381.516 85.952Z" fill="white"/>
</svg>
