<svg width="937" height="140" viewBox="0 0 937 140" fill="none" xmlns="http://www.w3.org/2000/svg">
<path d="M451.079 135.231C449.949 135.231 448.899 135.041 447.949 134.671C446.989 134.291 446.159 133.761 445.459 133.081C444.759 132.391 444.209 131.591 443.809 130.671C443.409 129.751 443.209 128.741 443.209 127.631C443.209 126.521 443.409 125.511 443.809 124.591C444.209 123.671 444.759 122.871 445.469 122.181C446.179 121.491 447.009 120.961 447.969 120.591C448.929 120.211 449.969 120.031 451.099 120.031C452.249 120.031 453.309 120.231 454.279 120.611C455.249 121.001 456.079 121.581 456.759 122.341L455.379 123.681C454.809 123.091 454.179 122.641 453.469 122.351C452.759 122.061 451.999 121.911 451.199 121.911C450.359 121.911 449.589 122.051 448.869 122.331C448.149 122.611 447.529 123.011 447.009 123.521C446.489 124.031 446.079 124.641 445.789 125.341C445.499 126.041 445.349 126.801 445.349 127.621C445.349 128.441 445.499 129.201 445.789 129.911C446.079 130.611 446.489 131.221 447.009 131.731C447.529 132.241 448.149 132.641 448.869 132.921C449.589 133.201 450.359 133.341 451.199 133.341C452.009 133.341 452.769 133.201 453.469 132.901C454.179 132.611 454.819 132.161 455.379 131.551L456.759 132.891C456.079 133.661 455.249 134.241 454.279 134.631C453.309 135.021 452.239 135.231 451.079 135.231Z" fill="#FFFCFC"/>
<path d="M466.719 135.061V123.801H468.679V126.861L468.489 126.091C468.799 125.311 469.329 124.721 470.059 124.301C470.789 123.881 471.699 123.681 472.779 123.681V125.661C472.699 125.651 472.609 125.641 472.539 125.641C472.459 125.641 472.389 125.641 472.319 125.641C471.229 125.641 470.359 125.971 469.729 126.621C469.089 127.271 468.769 128.211 468.769 129.451V135.061H466.719Z" fill="#FFFCFC"/>
<path d="M485.959 135.181C485.119 135.181 484.389 135.041 483.759 134.751C483.129 134.471 482.639 134.071 482.299 133.571C481.959 133.071 481.789 132.501 481.789 131.861C481.789 131.251 481.939 130.701 482.229 130.201C482.519 129.701 482.989 129.311 483.649 129.011C484.309 128.711 485.199 128.561 486.319 128.561H489.889V130.031H486.399C485.379 130.031 484.689 130.201 484.339 130.541C483.989 130.881 483.809 131.291 483.809 131.771C483.809 132.321 484.029 132.771 484.469 133.101C484.909 133.431 485.519 133.601 486.299 133.601C487.069 133.601 487.729 133.431 488.309 133.091C488.889 132.751 489.299 132.251 489.549 131.601L489.949 133.001C489.679 133.671 489.209 134.191 488.529 134.581C487.849 134.971 486.989 135.181 485.959 135.181ZM489.659 135.061V132.681L489.549 132.231V128.171C489.549 127.311 489.299 126.641 488.799 126.161C488.299 125.691 487.539 125.451 486.539 125.451C485.869 125.451 485.219 125.561 484.579 125.781C483.939 126.001 483.399 126.291 482.959 126.661L482.109 125.131C482.689 124.661 483.389 124.301 484.199 124.061C485.009 123.811 485.869 123.691 486.759 123.691C488.299 123.691 489.489 124.071 490.329 124.821C491.169 125.571 491.579 126.721 491.579 128.261V135.061H489.659Z" fill="#FFFCFC"/>
<path d="M500.979 125.471V123.791H508.159V125.471H500.979ZM502.899 135.061V122.801C502.899 121.691 503.219 120.811 503.869 120.151C504.509 119.491 505.429 119.161 506.619 119.161C507.059 119.161 507.479 119.211 507.879 119.321C508.279 119.431 508.629 119.591 508.909 119.821L508.289 121.371C508.079 121.201 507.839 121.071 507.569 120.981C507.299 120.891 507.019 120.841 506.719 120.841C506.119 120.841 505.669 121.011 505.359 121.341C505.049 121.671 504.889 122.171 504.889 122.821V124.331L504.929 125.261V135.061H502.899Z" fill="#FFFCFC"/>
<path d="M515.709 125.471V123.791H522.889V125.471H515.709ZM521.189 135.181C520.059 135.181 519.179 134.881 518.549 134.271C517.919 133.661 517.609 132.791 517.609 131.661V121.331H519.649V131.571C519.649 132.181 519.799 132.651 520.109 132.971C520.409 133.301 520.849 133.461 521.419 133.461C522.059 133.461 522.589 133.281 523.009 132.931L523.649 134.401C523.339 134.671 522.969 134.871 522.529 135.001C522.109 135.121 521.659 135.181 521.189 135.181Z" fill="#FFFCFC"/>
<path d="M534.369 121.621C533.969 121.621 533.639 121.491 533.379 121.241C533.119 120.991 532.989 120.671 532.989 120.311C532.989 119.931 533.119 119.611 533.379 119.351C533.639 119.091 533.969 118.971 534.369 118.971C534.769 118.971 535.099 119.091 535.359 119.341C535.619 119.591 535.749 119.901 535.749 120.261C535.749 120.641 535.619 120.971 535.369 121.231C535.109 121.491 534.779 121.621 534.369 121.621ZM533.349 135.061V123.801H535.389V135.061H533.349Z" fill="#FFFCFC"/>
<path d="M552.519 123.691C553.439 123.691 554.249 123.871 554.949 124.221C555.649 124.571 556.199 125.111 556.599 125.841C556.999 126.561 557.199 127.481 557.199 128.581V135.061H555.159V128.811C555.159 127.721 554.889 126.901 554.359 126.341C553.829 125.791 553.079 125.511 552.119 125.511C551.399 125.511 550.769 125.651 550.229 125.931C549.689 126.211 549.279 126.631 548.989 127.181C548.699 127.731 548.549 128.421 548.549 129.241V135.041H546.509V123.781H548.469V126.821L548.149 126.011C548.519 125.271 549.089 124.701 549.849 124.291C550.609 123.881 551.499 123.691 552.519 123.691Z" fill="#FFFCFC"/>
<path d="M572.879 134.591C571.789 134.591 570.819 134.361 569.959 133.901C569.099 133.441 568.419 132.801 567.919 131.981C567.419 131.161 567.169 130.211 567.169 129.131C567.169 128.041 567.419 127.091 567.919 126.271C568.419 125.461 569.099 124.821 569.959 124.371C570.819 123.921 571.789 123.691 572.879 123.691C573.839 123.691 574.719 123.891 575.519 124.271C576.309 124.661 576.949 125.261 577.419 126.071C577.889 126.881 578.129 127.901 578.129 129.131C578.129 130.351 577.889 131.361 577.419 132.171C576.949 132.981 576.309 133.581 575.519 133.991C574.719 134.391 573.839 134.591 572.879 134.591ZM573.139 139.311C572.109 139.311 571.099 139.161 570.129 138.871C569.159 138.581 568.369 138.171 567.759 137.631L568.739 136.061C569.259 136.511 569.909 136.871 570.669 137.131C571.439 137.391 572.239 137.521 573.069 137.521C574.399 137.521 575.379 137.211 575.999 136.591C576.619 135.971 576.939 135.021 576.939 133.741V131.361L577.149 129.131L577.039 126.881V123.801H578.969V133.531C578.969 135.511 578.469 136.971 577.479 137.911C576.499 138.841 575.049 139.311 573.139 139.311ZM573.109 132.801C573.859 132.801 574.529 132.641 575.109 132.331C575.689 132.021 576.149 131.591 576.479 131.031C576.809 130.471 576.979 129.841 576.979 129.121C576.979 128.401 576.809 127.761 576.479 127.211C576.149 126.661 575.689 126.231 575.109 125.921C574.529 125.621 573.859 125.461 573.109 125.461C572.359 125.461 571.689 125.611 571.099 125.921C570.509 126.231 570.049 126.651 569.719 127.211C569.389 127.761 569.219 128.401 569.219 129.121C569.219 129.841 569.389 130.481 569.719 131.031C570.049 131.581 570.509 132.011 571.099 132.331C571.689 132.651 572.359 132.801 573.109 132.801Z" fill="#FFFCFC"/>
<path d="M601.419 125.471V123.791H608.599V125.471H601.419ZM606.909 135.181C605.779 135.181 604.899 134.881 604.269 134.271C603.639 133.661 603.329 132.791 603.329 131.661V121.331H605.369V131.571C605.369 132.181 605.519 132.651 605.829 132.971C606.129 133.301 606.569 133.461 607.139 133.461C607.779 133.461 608.309 133.281 608.729 132.931L609.369 134.401C609.059 134.671 608.689 134.871 608.249 135.001C607.819 135.121 607.369 135.181 606.909 135.181Z" fill="#FFFCFC"/>
<path d="M623.889 135.181C622.769 135.181 621.769 134.931 620.879 134.441C619.989 133.941 619.299 133.261 618.789 132.391C618.279 131.521 618.019 130.531 618.019 129.431C618.019 128.311 618.269 127.321 618.789 126.471C619.309 125.621 619.989 124.941 620.869 124.441C621.749 123.941 622.749 123.701 623.889 123.701C625.009 123.701 626.009 123.941 626.899 124.431C627.789 124.921 628.479 125.601 628.979 126.461C629.479 127.321 629.729 128.321 629.729 129.441C629.729 130.561 629.479 131.551 628.979 132.421C628.479 133.281 627.779 133.961 626.899 134.461C626.009 134.941 625.009 135.181 623.889 135.181ZM623.889 133.401C624.609 133.401 625.259 133.241 625.829 132.911C626.399 132.581 626.849 132.121 627.179 131.521C627.509 130.921 627.669 130.221 627.669 129.431C627.669 128.621 627.509 127.921 627.179 127.341C626.849 126.751 626.399 126.301 625.829 125.971C625.259 125.641 624.609 125.481 623.889 125.481C623.169 125.481 622.519 125.641 621.959 125.971C621.389 126.301 620.939 126.751 620.599 127.341C620.259 127.931 620.089 128.631 620.089 129.431C620.089 130.221 620.259 130.921 620.599 131.521C620.939 132.121 621.389 132.591 621.959 132.911C622.529 133.231 623.159 133.401 623.889 133.401Z" fill="#FFFCFC"/>
<path d="M653.869 123.691C654.779 123.691 655.579 123.871 656.269 124.221C656.959 124.571 657.509 125.111 657.899 125.841C658.289 126.571 658.479 127.481 658.479 128.581V135.061H656.439V128.811C656.439 127.721 656.189 126.901 655.669 126.341C655.149 125.781 654.439 125.511 653.519 125.511C652.839 125.511 652.239 125.651 651.729 125.931C651.219 126.211 650.829 126.631 650.549 127.181C650.269 127.731 650.139 128.421 650.139 129.241V135.041H648.099V128.791C648.099 127.701 647.849 126.881 647.349 126.321C646.849 125.771 646.129 125.491 645.189 125.491C644.519 125.491 643.939 125.631 643.429 125.911C642.919 126.191 642.519 126.611 642.239 127.161C641.959 127.711 641.809 128.401 641.809 129.221V135.021H639.769V123.761H641.729V126.761L641.409 126.001C641.759 125.261 642.309 124.691 643.049 124.281C643.789 123.871 644.639 123.661 645.619 123.661C646.699 123.661 647.619 123.931 648.399 124.461C649.179 124.991 649.689 125.801 649.929 126.871L649.099 126.531C649.439 125.671 650.039 124.971 650.889 124.451C651.749 123.951 652.739 123.691 653.869 123.691Z" fill="#FFFCFC"/>
<path d="M674.299 135.181C673.179 135.181 672.179 134.931 671.289 134.441C670.399 133.941 669.709 133.261 669.199 132.391C668.689 131.521 668.429 130.531 668.429 129.431C668.429 128.311 668.679 127.321 669.199 126.471C669.719 125.621 670.399 124.941 671.279 124.441C672.159 123.941 673.159 123.701 674.299 123.701C675.419 123.701 676.419 123.941 677.309 124.431C678.199 124.921 678.889 125.601 679.389 126.461C679.889 127.321 680.139 128.321 680.139 129.441C680.139 130.561 679.889 131.551 679.389 132.421C678.889 133.281 678.189 133.961 677.309 134.461C676.419 134.941 675.419 135.181 674.299 135.181ZM674.299 133.401C675.019 133.401 675.669 133.241 676.239 132.911C676.809 132.581 677.259 132.121 677.589 131.521C677.919 130.921 678.079 130.221 678.079 129.431C678.079 128.621 677.919 127.921 677.589 127.341C677.259 126.751 676.809 126.301 676.239 125.971C675.669 125.641 675.019 125.481 674.299 125.481C673.579 125.481 672.929 125.641 672.369 125.971C671.799 126.301 671.349 126.751 671.009 127.341C670.669 127.931 670.499 128.631 670.499 129.431C670.499 130.221 670.669 130.921 671.009 131.521C671.349 132.121 671.799 132.591 672.369 132.911C672.939 133.231 673.579 133.401 674.299 133.401Z" fill="#FFFCFC"/>
<path d="M690.189 135.061V123.801H692.149V126.861L691.959 126.091C692.269 125.311 692.799 124.721 693.529 124.301C694.259 123.881 695.169 123.681 696.249 123.681V125.661C696.169 125.651 696.079 125.641 696.009 125.641C695.929 125.641 695.859 125.641 695.789 125.641C694.699 125.641 693.829 125.971 693.199 126.621C692.559 127.271 692.239 128.211 692.239 129.451V135.061H690.189Z" fill="#FFFCFC"/>
<path d="M706.129 135.061V123.801H708.089V126.861L707.899 126.091C708.209 125.311 708.739 124.721 709.469 124.301C710.199 123.881 711.109 123.681 712.189 123.681V125.661C712.109 125.651 712.019 125.641 711.949 125.641C711.869 125.641 711.799 125.641 711.729 125.641C710.639 125.641 709.769 125.971 709.139 126.621C708.499 127.271 708.179 128.211 708.179 129.451V135.061H706.129Z" fill="#FFFCFC"/>
<path d="M726.899 135.181C725.779 135.181 724.779 134.931 723.889 134.441C722.999 133.941 722.309 133.261 721.799 132.391C721.289 131.521 721.029 130.531 721.029 129.431C721.029 128.311 721.279 127.321 721.799 126.471C722.319 125.621 722.999 124.941 723.879 124.441C724.759 123.941 725.759 123.701 726.899 123.701C728.019 123.701 729.019 123.941 729.909 124.431C730.799 124.921 731.489 125.601 731.989 126.461C732.489 127.321 732.739 128.321 732.739 129.441C732.739 130.561 732.489 131.551 731.989 132.421C731.489 133.281 730.789 133.961 729.909 134.461C729.019 134.941 728.019 135.181 726.899 135.181ZM726.899 133.401C727.619 133.401 728.269 133.241 728.839 132.911C729.409 132.581 729.859 132.121 730.189 131.521C730.519 130.921 730.679 130.221 730.679 129.431C730.679 128.621 730.519 127.921 730.189 127.341C729.859 126.751 729.409 126.301 728.839 125.971C728.269 125.641 727.619 125.481 726.899 125.481C726.179 125.481 725.529 125.641 724.969 125.971C724.399 126.301 723.949 126.751 723.609 127.341C723.269 127.931 723.099 128.631 723.099 129.431C723.099 130.221 723.269 130.921 723.609 131.521C723.949 132.121 724.399 132.591 724.969 132.911C725.539 133.231 726.169 133.401 726.899 133.401Z" fill="#FFFCFC"/>
<path d="M745.169 135.061L740.979 123.801H742.909L746.629 134.001H745.719L749.589 123.801H751.309L755.089 134.001H754.199L757.999 123.801H759.829L755.619 135.061H753.659L750.109 125.751H750.709L747.119 135.061H745.169Z" fill="#FFFCFC"/>
<path d="M768.319 125.091L769.379 120.781L769.659 122.011C769.249 122.011 768.909 121.881 768.629 121.631C768.349 121.381 768.219 121.041 768.219 120.611C768.219 120.171 768.359 119.821 768.629 119.561C768.909 119.301 769.239 119.171 769.639 119.171C770.049 119.171 770.379 119.311 770.639 119.591C770.899 119.871 771.019 120.211 771.019 120.621C771.019 120.751 771.009 120.881 770.999 121.011C770.989 121.141 770.949 121.301 770.899 121.471C770.849 121.641 770.779 121.861 770.679 122.131L769.659 125.111H768.319V125.091Z" fill="#FFFCFC"/>
<path d="M784.409 135.181C783.469 135.181 782.589 135.051 781.739 134.801C780.889 134.551 780.229 134.231 779.749 133.861L780.599 132.241C781.079 132.571 781.679 132.841 782.389 133.071C783.099 133.301 783.819 133.411 784.559 133.411C785.509 133.411 786.189 133.281 786.609 133.011C787.029 132.741 787.239 132.371 787.239 131.881C787.239 131.531 787.109 131.251 786.859 131.051C786.609 130.851 786.269 130.701 785.849 130.601C785.429 130.501 784.969 130.411 784.459 130.331C783.949 130.251 783.439 130.151 782.929 130.031C782.419 129.911 781.949 129.741 781.529 129.521C781.109 129.301 780.759 129.001 780.509 128.611C780.259 128.221 780.129 127.701 780.129 127.051C780.129 126.371 780.319 125.771 780.699 125.261C781.079 124.751 781.619 124.361 782.329 124.081C783.029 123.801 783.859 123.671 784.829 123.671C785.569 123.671 786.309 123.761 787.069 123.941C787.829 124.121 788.449 124.371 788.929 124.691L788.059 126.301C787.549 125.961 787.019 125.731 786.469 125.601C785.919 125.471 785.369 125.411 784.809 125.411C783.919 125.411 783.249 125.561 782.809 125.851C782.369 126.141 782.149 126.511 782.149 126.971C782.149 127.351 782.279 127.651 782.539 127.851C782.799 128.061 783.139 128.221 783.559 128.331C783.979 128.441 784.439 128.541 784.949 128.621C785.459 128.701 785.969 128.801 786.479 128.921C786.989 129.041 787.449 129.211 787.869 129.421C788.289 129.631 788.629 129.931 788.889 130.311C789.149 130.691 789.279 131.201 789.279 131.841C789.279 132.521 789.079 133.111 788.679 133.601C788.279 134.091 787.719 134.481 786.999 134.761C786.279 135.041 785.409 135.181 784.409 135.181Z" fill="#FFFCFC"/>
<path d="M815.219 135.181C814.279 135.181 813.399 135.051 812.549 134.801C811.699 134.551 811.039 134.231 810.559 133.861L811.409 132.241C811.889 132.571 812.489 132.841 813.199 133.071C813.909 133.301 814.629 133.411 815.369 133.411C816.319 133.411 816.999 133.281 817.419 133.011C817.839 132.741 818.049 132.371 818.049 131.881C818.049 131.531 817.919 131.251 817.669 131.051C817.419 130.851 817.079 130.701 816.659 130.601C816.239 130.501 815.779 130.411 815.269 130.331C814.759 130.251 814.249 130.151 813.739 130.031C813.229 129.911 812.759 129.741 812.339 129.521C811.919 129.301 811.569 129.001 811.319 128.611C811.069 128.221 810.939 127.701 810.939 127.051C810.939 126.371 811.129 125.771 811.509 125.261C811.889 124.751 812.429 124.361 813.139 124.081C813.839 123.801 814.669 123.671 815.639 123.671C816.379 123.671 817.119 123.761 817.879 123.941C818.639 124.121 819.259 124.371 819.739 124.691L818.869 126.301C818.359 125.961 817.829 125.731 817.279 125.601C816.729 125.471 816.179 125.411 815.619 125.411C814.729 125.411 814.059 125.561 813.619 125.851C813.179 126.141 812.959 126.511 812.959 126.971C812.959 127.351 813.089 127.651 813.349 127.851C813.609 128.061 813.949 128.221 814.369 128.331C814.789 128.441 815.249 128.541 815.759 128.621C816.269 128.701 816.779 128.801 817.289 128.921C817.799 129.041 818.259 129.211 818.679 129.421C819.099 129.631 819.439 129.931 819.699 130.311C819.959 130.691 820.089 131.201 820.089 131.841C820.089 132.521 819.889 133.111 819.489 133.601C819.089 134.091 818.529 134.481 817.809 134.761C817.089 135.041 816.229 135.181 815.219 135.181Z" fill="#FFFCFC"/>
<path d="M834.609 135.181C833.649 135.181 832.799 135.001 832.069 134.651C831.339 134.301 830.769 133.751 830.369 133.021C829.969 132.291 829.759 131.371 829.759 130.271V123.791H831.799V130.041C831.799 131.151 832.069 131.971 832.599 132.531C833.129 133.091 833.879 133.361 834.839 133.361C835.549 133.361 836.159 133.211 836.689 132.921C837.209 132.631 837.619 132.201 837.899 131.641C838.179 131.081 838.319 130.401 838.319 129.611V123.791H840.359V135.051H838.429V132.011L838.749 132.821C838.379 133.571 837.829 134.151 837.089 134.561C836.349 134.981 835.529 135.181 834.609 135.181Z" fill="#FFFCFC"/>
<path d="M856.389 135.181C855.239 135.181 854.219 134.931 853.319 134.441C852.419 133.941 851.719 133.261 851.209 132.401C850.699 131.541 850.439 130.541 850.439 129.421C850.439 128.301 850.689 127.311 851.209 126.441C851.729 125.571 852.419 124.901 853.319 124.411C854.219 123.921 855.239 123.681 856.389 123.681C857.409 123.681 858.319 123.881 859.119 124.291C859.919 124.691 860.539 125.291 860.979 126.091L859.429 127.091C859.059 126.541 858.609 126.131 858.079 125.871C857.549 125.611 856.979 125.481 856.369 125.481C855.629 125.481 854.969 125.641 854.389 125.971C853.809 126.301 853.349 126.751 853.009 127.341C852.669 127.931 852.499 128.631 852.499 129.431C852.499 130.231 852.669 130.941 853.009 131.531C853.349 132.131 853.809 132.591 854.389 132.911C854.969 133.241 855.629 133.401 856.369 133.401C856.979 133.401 857.549 133.271 858.079 133.011C858.609 132.751 859.059 132.341 859.429 131.791L860.979 132.771C860.539 133.551 859.919 134.151 859.119 134.571C858.319 134.991 857.409 135.181 856.389 135.181Z" fill="#FFFCFC"/>
<path d="M875.749 135.181C874.599 135.181 873.579 134.931 872.679 134.441C871.779 133.941 871.079 133.261 870.569 132.401C870.059 131.541 869.799 130.541 869.799 129.421C869.799 128.301 870.049 127.311 870.569 126.441C871.089 125.571 871.779 124.901 872.679 124.411C873.579 123.921 874.599 123.681 875.749 123.681C876.769 123.681 877.679 123.881 878.479 124.291C879.279 124.691 879.899 125.291 880.339 126.091L878.789 127.091C878.419 126.541 877.969 126.131 877.439 125.871C876.909 125.611 876.339 125.481 875.729 125.481C874.989 125.481 874.329 125.641 873.749 125.971C873.169 126.301 872.709 126.751 872.369 127.341C872.029 127.931 871.859 128.631 871.859 129.431C871.859 130.231 872.029 130.941 872.369 131.531C872.709 132.131 873.169 132.591 873.749 132.911C874.329 133.241 874.989 133.401 875.729 133.401C876.339 133.401 876.909 133.271 877.439 133.011C877.969 132.751 878.419 132.341 878.789 131.791L880.339 132.771C879.899 133.551 879.279 134.151 878.479 134.571C877.679 134.991 876.769 135.181 875.749 135.181Z" fill="#FFFCFC"/>
<path d="M895.219 135.181C894.019 135.181 892.959 134.931 892.039 134.441C891.129 133.941 890.419 133.261 889.909 132.401C889.399 131.541 889.159 130.541 889.159 129.421C889.159 128.301 889.399 127.311 889.889 126.441C890.379 125.571 891.049 124.901 891.909 124.411C892.769 123.921 893.729 123.681 894.809 123.681C895.899 123.681 896.859 123.921 897.699 124.401C898.539 124.881 899.189 125.561 899.669 126.431C900.149 127.301 900.379 128.321 900.379 129.481C900.379 129.561 900.379 129.661 900.369 129.781C900.359 129.891 900.349 130.001 900.339 130.101H890.749V128.631H899.269L898.439 129.141C898.449 128.421 898.309 127.771 897.989 127.211C897.679 126.641 897.249 126.201 896.699 125.881C896.149 125.561 895.519 125.401 894.799 125.401C894.089 125.401 893.459 125.561 892.909 125.881C892.359 126.201 891.929 126.651 891.609 127.221C891.299 127.791 891.139 128.451 891.139 129.191V129.531C891.139 130.281 891.309 130.951 891.659 131.541C892.009 132.131 892.489 132.581 893.119 132.911C893.749 133.241 894.459 133.401 895.269 133.401C895.939 133.401 896.539 133.291 897.089 133.061C897.639 132.831 898.109 132.491 898.519 132.041L899.649 133.361C899.139 133.951 898.509 134.411 897.749 134.721C896.989 135.031 896.149 135.181 895.219 135.181Z" fill="#FFFCFC"/>
<path d="M913.669 135.181C912.729 135.181 911.849 135.051 910.999 134.801C910.149 134.551 909.489 134.231 909.009 133.861L909.859 132.241C910.339 132.571 910.939 132.841 911.649 133.071C912.359 133.301 913.079 133.411 913.819 133.411C914.769 133.411 915.449 133.281 915.869 133.011C916.289 132.741 916.499 132.371 916.499 131.881C916.499 131.531 916.369 131.251 916.119 131.051C915.869 130.851 915.529 130.701 915.109 130.601C914.689 130.501 914.229 130.411 913.719 130.331C913.209 130.251 912.699 130.151 912.189 130.031C911.679 129.911 911.209 129.741 910.789 129.521C910.369 129.301 910.019 129.001 909.769 128.611C909.519 128.221 909.389 127.701 909.389 127.051C909.389 126.371 909.579 125.771 909.959 125.261C910.339 124.751 910.879 124.361 911.589 124.081C912.289 123.801 913.119 123.671 914.089 123.671C914.829 123.671 915.569 123.761 916.329 123.941C917.089 124.121 917.709 124.371 918.189 124.691L917.319 126.301C916.809 125.961 916.279 125.731 915.729 125.601C915.179 125.471 914.629 125.411 914.069 125.411C913.179 125.411 912.509 125.561 912.069 125.851C911.629 126.141 911.409 126.511 911.409 126.971C911.409 127.351 911.539 127.651 911.799 127.851C912.059 128.061 912.399 128.221 912.819 128.331C913.239 128.441 913.699 128.541 914.209 128.621C914.719 128.701 915.229 128.801 915.739 128.921C916.249 129.041 916.709 129.211 917.129 129.421C917.549 129.631 917.889 129.931 918.149 130.311C918.409 130.691 918.539 131.201 918.539 131.841C918.539 132.521 918.339 133.111 917.939 133.601C917.539 134.091 916.979 134.481 916.259 134.761C915.539 135.041 914.669 135.181 913.669 135.181Z" fill="#FFFCFC"/>
<path d="M931.539 135.181C930.599 135.181 929.719 135.051 928.869 134.801C928.019 134.551 927.359 134.231 926.879 133.861L927.729 132.241C928.209 132.571 928.809 132.841 929.519 133.071C930.229 133.301 930.949 133.411 931.689 133.411C932.639 133.411 933.319 133.281 933.739 133.011C934.159 132.741 934.369 132.371 934.369 131.881C934.369 131.531 934.239 131.251 933.989 131.051C933.739 130.851 933.399 130.701 932.979 130.601C932.559 130.501 932.099 130.411 931.589 130.331C931.079 130.251 930.569 130.151 930.059 130.031C929.549 129.911 929.079 129.741 928.659 129.521C928.239 129.301 927.889 129.001 927.639 128.611C927.389 128.221 927.259 127.701 927.259 127.051C927.259 126.371 927.449 125.771 927.829 125.261C928.209 124.751 928.749 124.361 929.459 124.081C930.159 123.801 930.989 123.671 931.959 123.671C932.699 123.671 933.439 123.761 934.199 123.941C934.959 124.121 935.579 124.371 936.059 124.691L935.189 126.301C934.679 125.961 934.149 125.731 933.599 125.601C933.049 125.471 932.499 125.411 931.939 125.411C931.049 125.411 930.379 125.561 929.939 125.851C929.499 126.141 929.279 126.511 929.279 126.971C929.279 127.351 929.409 127.651 929.669 127.851C929.929 128.061 930.269 128.221 930.689 128.331C931.109 128.441 931.569 128.541 932.079 128.621C932.589 128.701 933.099 128.801 933.609 128.921C934.119 129.041 934.579 129.211 934.999 129.421C935.419 129.631 935.759 129.931 936.019 130.311C936.279 130.691 936.409 131.201 936.409 131.841C936.409 132.521 936.209 133.111 935.809 133.601C935.409 134.091 934.849 134.481 934.129 134.761C933.409 135.041 932.539 135.181 931.539 135.181Z" fill="#FFFCFC"/>
<path d="M415.589 129.301L339.329 128.801L415.589 128.301V129.301Z" fill="#FFFCFC"/>
<path d="M242.519 46.8714C248.439 46.8714 253.379 49.2714 257.329 54.0614C259.479 56.6814 260.839 59.9114 261.179 63.2814C261.739 68.7714 260.399 73.4914 257.169 77.4214C253.399 82.0114 247.589 84.4314 241.649 84.4314C226.529 84.4314 188.769 84.4314 188.769 84.4314C188.209 84.4314 187.719 84.2114 187.289 83.7814C186.859 83.3514 186.639 82.8414 186.639 82.2514C186.639 81.6714 186.859 81.1714 187.289 80.7714C187.719 80.3714 188.219 80.1714 188.769 80.1714H242.519C246.329 80.1714 249.629 78.8514 252.399 76.2014C255.349 73.3914 257.029 69.3914 256.949 65.3114C256.869 61.4414 255.459 58.1314 252.699 55.3714C249.859 52.5314 246.469 51.1114 242.519 51.1114H202.369C199.529 51.1114 196.909 50.4214 194.509 49.0314C192.109 47.6414 190.189 45.7314 188.769 43.2914C187.349 40.8514 186.639 38.2214 186.639 35.3814C186.639 31.0614 188.179 27.3614 191.269 24.2814C194.349 21.2014 198.049 19.6514 202.369 19.6514H259.079C259.699 19.6514 260.219 19.8714 260.649 20.3014C261.079 20.7314 261.299 21.2414 261.299 21.8314C261.299 22.4214 261.079 22.9114 260.649 23.3114C260.219 23.7114 259.689 23.9114 259.079 23.9114H203.039C200.309 23.9114 197.569 24.6714 195.409 26.3414C194.289 27.2114 193.339 28.2614 192.579 29.5014C191.349 31.4814 190.769 33.8514 190.909 36.1814C191.089 38.9914 192.199 41.4214 194.259 43.4814C196.509 45.7314 199.209 46.8614 202.359 46.8614H242.519V46.8714Z" fill="#FFFCFC"/>
<path d="M274.989 19.6714C275.419 19.6714 275.789 19.7614 276.099 19.9514C276.409 20.1414 276.649 20.4014 276.839 20.7414C277.019 21.0814 277.119 21.4314 277.119 21.8014V82.3114C277.119 82.9314 276.919 83.4414 276.519 83.8414C276.119 84.2414 275.609 84.4414 274.989 84.4414C274.619 84.4414 274.259 84.3514 273.929 84.1614C273.589 83.9714 273.329 83.7314 273.139 83.4214C272.959 83.1114 272.859 82.7414 272.859 82.3114V21.8014C272.859 21.2414 273.079 20.7514 273.509 20.3214C273.949 19.8814 274.439 19.6714 274.989 19.6714Z" fill="#FFFCFC"/>
<path d="M363.719 80.1714C364.339 80.1714 364.859 80.3714 365.289 80.7714C365.719 81.1714 365.939 81.6714 365.939 82.2514C365.939 82.8414 365.719 83.3514 365.289 83.7814C364.859 84.2114 364.329 84.4314 363.719 84.4314H310.609C305.299 84.4314 300.759 82.5314 296.959 78.7414C293.169 74.9514 291.269 70.4014 291.269 65.0914V21.7914C291.269 21.2314 291.489 20.7414 291.919 20.3114C292.349 19.8814 292.859 19.6614 293.449 19.6614C294.039 19.6614 294.529 19.8814 294.929 20.3114C295.329 20.7414 295.529 21.2314 295.529 21.7914V65.0914C295.529 69.2214 297.009 72.7714 299.969 75.7314C302.929 78.6914 306.479 80.1714 310.609 80.1714H363.719Z" fill="#FFFCFC"/>
<path d="M423.319 19.6714C428.799 19.6714 434.199 21.6714 438.019 25.6014C441.649 29.3414 443.469 33.8114 443.469 39.0014V65.0914C443.469 70.2814 441.649 74.7514 438.019 78.4914C434.199 82.4314 428.799 84.4314 423.319 84.4314H409.239C408.749 84.4314 408.339 84.8714 408.409 85.3614C408.879 88.8414 410.439 91.8214 413.079 94.2914C415.949 96.9714 419.359 98.3114 423.299 98.3114H425.059C425.619 98.3114 426.109 98.5114 426.539 98.9114C426.969 99.3114 427.189 99.8214 427.189 100.441C427.189 101.061 426.969 101.571 426.539 101.971C426.109 102.371 425.619 102.571 425.059 102.571H423.299C421.259 102.571 419.309 102.281 417.419 101.691C415.539 101.101 413.809 100.261 412.239 99.1514C410.669 98.0414 409.289 96.7314 408.119 95.2214C406.949 93.7114 406.009 92.0314 405.299 90.1814C404.679 88.5614 404.279 86.9014 404.109 85.1914C404.069 84.7714 403.729 84.4514 403.309 84.4514H388.139C384.619 84.4514 381.389 83.5914 378.429 81.8614C375.469 80.1314 373.119 77.7914 371.399 74.8314C369.669 71.8714 368.809 68.6314 368.809 65.1114V39.0214C368.809 33.7214 370.709 29.1714 374.499 25.3714C378.289 21.5814 382.839 19.6814 388.149 19.6814H423.319V19.6714ZM439.119 65.0914V39.0014C439.119 34.8714 437.649 31.3214 434.719 28.3614C431.789 25.4014 428.229 23.9214 424.029 23.9214H388.129C383.999 23.9214 380.449 25.4014 377.489 28.3614C374.529 31.3214 373.049 34.8714 373.049 39.0014V65.0914C373.049 69.2214 374.529 72.7714 377.489 75.7314C380.449 78.6914 383.999 80.1714 388.129 80.1714H424.029C428.219 80.1714 431.789 78.6914 434.719 75.7314C437.659 72.7714 439.119 69.2314 439.119 65.0914Z" fill="#FFFCFC"/>
<path d="M527.199 20.3114C527.629 19.8814 528.139 19.6614 528.729 19.6614C529.319 19.6614 529.819 19.8814 530.259 20.3114C530.689 20.7414 530.909 21.2314 530.909 21.7914V65.0914C530.909 70.2814 529.089 74.7514 525.459 78.4914C521.639 82.4314 516.239 84.4314 510.759 84.4314H475.579C470.269 84.4314 465.729 82.5314 461.929 78.7414C458.139 74.9514 456.239 70.4014 456.239 65.0914V21.7914C456.239 21.2314 456.459 20.7414 456.889 20.3114C457.319 19.8814 457.809 19.6614 458.369 19.6614C458.799 19.6614 459.169 19.7514 459.479 19.9414C459.789 20.1314 460.039 20.3914 460.219 20.7314C460.399 21.0714 460.499 21.4214 460.499 21.7914V65.0914C460.499 69.2214 461.979 72.7714 464.939 75.7314C467.899 78.6914 471.449 80.1714 475.579 80.1714H511.479C515.669 80.1714 519.239 78.6914 522.169 75.7314C525.099 72.7714 526.559 69.2214 526.559 65.0914V21.7914C526.549 21.2414 526.769 20.7514 527.199 20.3114Z" fill="#FFFCFC"/>
<path d="M616.109 80.1714C616.719 80.1714 617.249 80.3714 617.679 80.7714C618.109 81.1714 618.329 81.6714 618.329 82.2514C618.329 82.8414 618.109 83.3514 617.679 83.7814C617.249 84.2114 616.719 84.4314 616.109 84.4314H562.999C557.699 84.4314 553.149 82.5314 549.349 78.7414C545.559 74.9514 543.659 70.4014 543.659 65.0914V39.0014C543.659 33.7014 545.559 29.1514 549.349 25.3514C553.139 21.5614 557.689 19.6614 562.999 19.6614H616.109C616.719 19.6614 617.249 19.8814 617.679 20.3114C618.109 20.7414 618.329 21.2514 618.329 21.8414C618.329 22.4314 618.109 22.9214 617.679 23.3214C617.249 23.7214 616.719 23.9214 616.109 23.9214H562.999C558.869 23.9214 555.319 25.4014 552.359 28.3614C549.399 31.3214 547.919 34.8714 547.919 39.0014V65.0914C547.919 69.2214 549.399 72.7714 552.359 75.7314C555.319 78.6914 558.869 80.1714 562.999 80.1714H616.109ZM558.649 46.8714H593.709C594.329 46.8714 594.849 47.0714 595.279 47.4714C595.709 47.8714 595.929 48.3814 595.929 49.0014C595.929 49.6214 595.709 50.1314 595.279 50.5314C594.849 50.9314 594.319 51.1314 593.709 51.1314H558.649C558.089 51.1314 557.599 50.9314 557.169 50.5314C556.739 50.1314 556.519 49.6214 556.519 49.0014C556.519 48.3914 556.739 47.8814 557.169 47.4714C557.599 47.0714 558.099 46.8714 558.649 46.8714Z" fill="#FFFCFC"/>
<path d="M653.109 19.6714C653.729 19.6714 654.249 19.8914 654.679 20.3214C655.109 20.7514 655.329 21.2614 655.329 21.8514C655.329 22.4414 655.109 22.9314 654.679 23.3314C654.249 23.7314 653.719 23.9314 653.109 23.9314H623.409C622.849 23.9314 622.359 23.7314 621.929 23.3314C621.499 22.9314 621.279 22.4414 621.279 21.8514C621.279 21.2614 621.499 20.7514 621.929 20.3214C622.359 19.8914 622.859 19.6714 623.409 19.6714H653.109ZM693.729 19.6714C694.349 19.6714 694.869 19.8914 695.299 20.3214C695.729 20.7514 695.949 21.2614 695.949 21.8514C695.949 22.4414 695.729 22.9314 695.299 23.3314C694.869 23.7314 694.339 23.9314 693.729 23.9314H675.779C671.649 23.9314 668.119 25.4114 665.189 28.3714C662.259 31.3314 660.799 34.8814 660.799 39.0114V82.3114C660.799 82.8714 660.579 83.3614 660.149 83.7914C659.719 84.2214 659.209 84.4414 658.619 84.4414C658.029 84.4414 657.519 84.2214 657.089 83.7914C656.659 83.3614 656.439 82.8714 656.439 82.3114V39.0114C656.439 33.7114 658.339 29.1614 662.129 25.3614C665.919 21.5714 670.469 19.6714 675.779 19.6714H693.729Z" fill="#FFFCFC"/>
<path d="M771.259 80.1714C771.869 80.1714 772.399 80.3714 772.829 80.7714C773.259 81.1714 773.479 81.6714 773.479 82.2514C773.479 82.8414 773.259 83.3514 772.829 83.7814C772.399 84.2114 771.869 84.4314 771.259 84.4314H718.149C712.839 84.4314 708.299 82.5314 704.499 78.7414C700.709 74.9514 698.809 70.4014 698.809 65.0914V39.0014C698.809 33.7014 700.709 29.1514 704.499 25.3514C708.289 21.5614 712.839 19.6614 718.149 19.6614H771.259C771.869 19.6614 772.399 19.8814 772.829 20.3114C773.259 20.7414 773.479 21.2514 773.479 21.8414C773.479 22.4314 773.259 22.9214 772.829 23.3214C772.399 23.7214 771.869 23.9214 771.259 23.9214H718.149C714.019 23.9214 710.469 25.4014 707.509 28.3614C704.549 31.3214 703.069 34.8714 703.069 39.0014V65.0914C703.069 69.2214 704.549 72.7714 707.509 75.7314C710.469 78.6914 714.019 80.1714 718.149 80.1714H771.259ZM713.809 46.8714H748.869C749.489 46.8714 750.009 47.0714 750.439 47.4714C750.869 47.8714 751.089 48.3814 751.089 49.0014C751.089 49.6214 750.869 50.1314 750.439 50.5314C750.009 50.9314 749.479 51.1314 748.869 51.1314H713.809C713.249 51.1314 712.759 50.9314 712.329 50.5314C711.899 50.1314 711.679 49.6214 711.679 49.0014C711.679 48.3914 711.899 47.8814 712.329 47.4714C712.759 47.0714 713.249 46.8714 713.809 46.8714Z" fill="#FFFCFC"/>
<path d="M850.729 80.1714C851.339 80.1714 851.869 80.3714 852.299 80.7714C852.729 81.1714 852.949 81.6714 852.949 82.2514C852.949 82.8414 852.729 83.3514 852.299 83.7814C851.869 84.2114 851.339 84.4314 850.729 84.4314H797.619C792.309 84.4314 787.769 82.5314 783.969 78.7414C780.179 74.9514 778.279 70.4014 778.279 65.0914V39.0014C778.279 33.7014 780.179 29.1514 783.969 25.3514C787.759 21.5614 792.309 19.6614 797.619 19.6614H850.729C851.339 19.6614 851.869 19.8814 852.299 20.3114C852.729 20.7414 852.949 21.2514 852.949 21.8414C852.949 22.4314 852.729 22.9214 852.299 23.3214C851.869 23.7214 851.339 23.9214 850.729 23.9214H797.619C793.489 23.9214 789.939 25.4014 786.979 28.3614C784.019 31.3214 782.539 34.8714 782.539 39.0014V65.0914C782.539 69.2214 784.019 72.7714 786.979 75.7314C789.939 78.6914 793.489 80.1714 797.619 80.1714H850.729Z" fill="#FFFCFC"/>
<path d="M932.699 20.3114C933.129 19.8814 933.639 19.6614 934.229 19.6614C934.819 19.6614 935.319 19.8814 935.759 20.3114C936.189 20.7414 936.409 21.2314 936.409 21.7914V82.3014C936.409 82.9214 936.189 83.4314 935.759 83.8314C935.329 84.2314 934.819 84.4314 934.229 84.4314C933.639 84.4314 933.129 84.2314 932.699 83.8314C932.269 83.4314 932.049 82.9214 932.049 82.3014V51.9414C932.049 51.4914 931.679 51.1214 931.229 51.1214H866.809C866.359 51.1214 865.989 51.4914 865.989 51.9414V82.3014C865.989 82.9214 865.789 83.4314 865.389 83.8314C864.989 84.2314 864.499 84.4314 863.909 84.4314C863.319 84.4314 862.809 84.2314 862.379 83.8314C861.949 83.4314 861.729 82.9214 861.729 82.3014V21.7914C861.729 21.2314 861.949 20.7414 862.379 20.3114C862.809 19.8814 863.319 19.6614 863.909 19.6614C864.499 19.6614 864.989 19.8814 865.389 20.3114C865.789 20.7414 865.989 21.2314 865.989 21.7914V46.0414C865.989 46.4914 866.359 46.8614 866.809 46.8614H931.229C931.679 46.8614 932.049 46.4914 932.049 46.0414V21.7914C932.059 21.2414 932.269 20.7514 932.699 20.3114Z" fill="#FFFCFC"/>
<path d="M62.0305 2.52126L2.26522 62.2827C-0.755072 65.3028 -0.755072 70.1993 2.26522 73.2194C5.2855 76.2395 10.1824 76.2395 13.2027 73.2194L72.9679 13.458C75.9882 10.4379 75.9883 5.54139 72.9679 2.5213C69.9477 -0.498793 65.0508 -0.498828 62.0305 2.52126Z" fill="white"/>
<path d="M92.5006 32.989L32.7351 92.7506C29.7148 95.7704 29.7148 100.667 32.7351 103.687C35.7554 106.707 40.6523 106.707 43.6726 103.687L103.438 43.9258C106.458 40.9057 106.458 36.0092 103.438 32.9891C100.418 29.969 95.5203 29.969 92.5006 32.989Z" fill="white"/>
<path d="M121.798 62.2839L62.0321 122.046C59.0118 125.065 59.0118 129.962 62.0321 132.982L62.0322 132.982C65.0524 136.002 69.9493 136.002 72.9696 132.982L132.735 73.2207C135.755 70.2006 135.755 65.3041 132.735 62.284C129.715 59.2639 124.817 59.2639 121.798 62.2839Z" fill="white"/>
<path d="M113.525 47.1129L89.3061 71.33C88.012 72.6243 88.012 74.7228 89.3061 76.0172C90.6002 77.3115 92.6995 77.3115 93.9936 76.0171L118.212 51.8001C119.506 50.5058 119.506 48.4072 118.212 47.1129C116.918 45.8186 114.819 45.8186 113.525 47.1129Z" fill="white"/>
<path d="M41.7198 59.5498L17.5011 83.7673C16.2067 85.0613 16.2067 87.1598 17.5011 88.4539C18.7955 89.7488 20.8942 89.7488 22.1886 88.4539L46.4072 64.237C47.7016 62.9427 47.7016 60.8442 46.4072 59.5498C45.1128 58.2555 43.0142 58.2555 41.7198 59.5498Z" fill="white"/>
</svg>
