<svg width="159" height="159" viewBox="0 0 159 159" fill="none" xmlns="http://www.w3.org/2000/svg">
<path d="M72.7171 2.65529L2.65547 72.7123C-0.885155 76.2527 -0.885155 81.9928 2.65547 85.5332C6.19609 89.0736 11.9366 89.0736 15.4772 85.5332L85.5388 15.4762C89.0794 11.9358 89.0795 6.19572 85.5388 2.65533C81.9982 -0.885057 76.2577 -0.885098 72.7171 2.65529Z" fill="white"/>
<path d="M108.436 38.372L38.3747 108.429C34.8341 111.969 34.8341 117.709 38.3747 121.25C41.9153 124.79 47.6559 124.79 51.1965 121.25L121.258 51.193C124.798 47.6526 124.798 41.9125 121.258 38.3721C117.717 34.8317 111.976 34.8317 108.436 38.372Z" fill="white"/>
<path d="M142.781 72.7138L72.7189 142.771C69.1783 146.311 69.1783 152.051 72.7189 155.591L72.719 155.592C76.2596 159.132 82.0001 159.132 85.5407 155.592L155.603 85.5348C159.143 81.9944 159.143 76.2543 155.603 72.7139C152.062 69.1736 146.321 69.1735 142.781 72.7138Z" fill="white"/>
<path d="M133.083 54.9291L104.692 83.3183C103.175 84.8356 103.175 87.2956 104.692 88.813C106.209 90.3303 108.67 90.3303 110.187 88.8129L138.578 60.4238C140.095 58.9065 140.095 56.4464 138.578 54.9291C137.061 53.4118 134.6 53.4118 133.083 54.9291Z" fill="white"/>
<path d="M48.9072 69.5087L20.5162 97.8983C18.9988 99.4153 18.9988 101.875 20.5162 103.392C22.0336 104.91 24.4938 104.91 26.0112 103.392L54.4022 75.0034C55.9196 73.4861 55.9196 71.026 54.4022 69.5087C52.8848 67.9914 50.4246 67.9914 48.9072 69.5087Z" fill="white"/>
</svg>
